Coordinates
version=1
nRows=7
nColumns=63
inDegrees=yes

Units are S.I. units (second, meters, Newtons, ...)
If the header above contains a line with 'inDegrees', this indicates whether rotational values are in degrees (yes) or radians (no).

endheader
time	pelvis_tilt	pelvis_list	pelvis_rotation	pelvis_tx	pelvis_ty	pelvis_tz	hip_flexion_r	hip_adduction_r	hip_rotation_r	knee_angle_r	knee_angle_r_beta	ankle_angle_r	subtalar_angle_r	mtp_angle_r	hip_flexion_l	hip_adduction_l	hip_rotation_l	knee_angle_l	knee_angle_l_beta	ankle_angle_l	subtalar_angle_l	mtp_angle_l	L5_S1_Flex_Ext	L5_S1_Lat_Bending	L5_S1_axial_rotation	L4_L5_Flex_Ext	L4_L5_Lat_Bending	L4_L5_axial_rotation	L3_L4_Flex_Ext	L3_L4_Lat_Bending	L3_L4_axial_rotation	L2_L3_Flex_Ext	L2_L3_Lat_Bending	L2_L3_axial_rotation	L1_L2_Flex_Ext	L1_L2_Lat_Bending	L1_L2_axial_rotation	L1_T12_Flex_Ext	L1_T12_Lat_Bending	L1_T12_axial_rotation	Abs_r3	Abs_r2	Abs_r1	Abs_t1	Abs_t2	neck_flexion	neck_bending	neck_rotation	arm_flex_r	arm_add_r	arm_rot_r	elbow_flex_r	pro_sup_r	wrist_flex_r	wrist_dev_r	arm_flex_l	arm_add_l	arm_rot_l	elbow_flex_l	pro_sup_l	wrist_flex_l	wrist_dev_l
      0.00800000	    -52.12913206	     -5.16686192	     -4.01372702	     -0.34981632	      0.98525323	      0.03217314	    129.46278109	     -7.40758669	     -4.65454196	    115.80649220	      2.02120458	     -0.29302042	     -9.74699268	      0.00000000	     87.62646525	     -9.40685323	      2.82873701	     47.00465459	      0.82038599	     -6.11620102	     -0.57069586	      0.00000000	     -0.08919747	      0.78218302	      0.73721433	     -0.16564863	      1.04030341	      0.78329022	     -0.14654253	      1.90179978	      0.78329022	     -0.10194379	      1.90179978	      0.64506253	     -0.08282877	      1.59502760	      0.59898664	     -0.05096744	      1.21160149	      0.55291074	     -0.63712863	      8.84821071	      4.10016491	      0.00000000	      0.00000000	      0.00000000	      0.00000000	      0.00000001	     70.27320887	     -8.86187017	      2.93588981	     39.17210807	     62.55253324	      0.00000000	      3.30259991	     66.50875701	     -5.67466102	     -6.91133871	     40.07543869	     61.94093819	      0.00000000	      3.30259991
      0.01700000	    -52.34814761	     -4.58393528	     -4.57194918	     -0.34947683	      0.98608258	      0.03450686	    130.71814049	     -6.37715500	     -4.45051726	    113.68586926	      1.98419273	      0.22022027	     -8.24203332	      0.00000000	     87.69711315	    -10.24962329	      2.19519229	     49.93554041	      0.87153959	     -5.52049831	     -1.66816984	      0.00000000	     -0.08860624	      0.70884946	      0.74083838	     -0.16455064	      0.94276978	      0.78714078	     -0.14557119	      1.72349657	      0.78714078	     -0.10126807	      1.72349657	      0.64823358	     -0.08227975	      1.44548581	      0.60193118	     -0.05062960	      1.09800781	      0.55562878	     -0.63290550	      8.01864682	      4.12032081	      0.00000000	      0.00000000	      0.00000000	      0.00000000	      0.00000001	     69.84870173	     -7.43604145	      0.39264988	     39.57439741	     61.88734783	      0.00000000	      3.38038974	     66.11226337	     -6.53572251	     -7.27261729	     41.08773414	     61.62856276	      0.00000000	      3.38038974
      0.02500000	    -52.38316422	     -4.52212337	     -4.32878468	     -0.34944073	      0.98624025	      0.03456820	    130.79684351	     -6.44015616	     -4.21624836	    112.81243642	      1.96894845	      0.81101905	     -7.47763391	      0.00000000	     87.89441666	    -10.12237641	      2.17458413	     51.16417135	      0.89298325	     -5.32187006	     -1.72721229	      0.00000000	     -0.08759526	      0.69493815	      0.69180152	     -0.16267316	      0.92426774	      0.73503911	     -0.14391025	      1.68967262	      0.73503911	     -0.10011262	      1.68967262	      0.60532633	     -0.08134096	      1.41711787	      0.56208873	     -0.05005193	      1.07645919	      0.51885114	     -0.62568419	      7.86127933	      3.84759250	      0.00000000	      0.00000000	      0.00000000	      0.00000000	      0.00000001	     69.68401935	     -7.33178574	      0.23093980	     39.87546849	     60.99384214	      0.00000000	      3.50803754	     66.04440240	     -6.57615440	     -7.30136185	     41.34006687	     60.76852835	      0.00000000	      3.50803754
      0.03300000	    -52.40036177	     -4.46618903	     -4.06298183	     -0.34955278	      0.98641938	      0.03462735	    130.79790151	     -6.52647854	     -4.09718631	    111.67542404	      1.94910384	      1.08004237	     -7.31807520	      0.00000000	     88.11210015	    -10.00654922	      2.08644805	     52.56544944	      0.91744017	     -5.13546740	     -2.03376639	      0.00000000	     -0.08779671	      0.68041728	      0.63850651	     -0.16304728	      0.90495498	      0.67841317	     -0.14424122	      1.65436657	      0.67841317	     -0.10034286	      1.65436657	      0.55869320	     -0.08152803	      1.38750692	      0.51878654	     -0.05016704	      1.05396637	      0.47887988	     -0.62712315	      7.69701634	      3.55118165	      0.00000000	      0.00000000	      0.00000000	      0.00000000	      0.00000001	     69.69210142	     -7.23560536	      0.15197077	     39.77737959	     60.85006883	      0.00000000	      3.53605515	     66.11717053	     -6.63030875	     -7.28187227	     41.27757634	     60.64811704	      0.00000000	      3.53605515
      0.04200000	    -52.42438226	     -4.44930476	     -3.77581252	     -0.34968360	      0.98657729	      0.03465362	    130.68410627	     -6.64118833	     -4.00335265	    110.30701952	      1.92522068	      1.47381409	     -6.99012448	      0.00000000	     88.44321115	     -9.90208334	      2.01966550	     54.27944022	      0.94735495	     -4.90462086	     -2.38218860	      0.00000000	     -0.08723540	      0.66992683	      0.58336090	     -0.16200486	      0.89100269	      0.61982095	     -0.14331904	      1.62886011	      0.61982095	     -0.09970134	      1.62886011	      0.51044079	     -0.08100679	      1.36611480	      0.47398073	     -0.04984631	      1.03771667	      0.43752067	     -0.62311375	      7.57834634	      3.24447831	      0.00000000	      0.00000000	      0.00000000	      0.00000000	      0.00000001	     69.67376288	     -7.19955244	      0.14826746	     39.78919948	     60.62337234	      0.00000000	      3.58052712	     66.12648120	     -6.66285018	     -7.26164231	     41.36684032	     60.43458022	      0.00000000	      3.58052712
      0.05000000	    -52.43030335	     -4.48340332	     -3.46891229	     -0.34984262	      0.98668283	      0.03461820	    130.43397368	     -6.79521562	     -3.97110648	    108.74439433	      1.89794772	      1.96925533	     -6.67837157	      0.00000000	     88.87022384	     -9.78466629	      2.01610038	     56.26386490	      0.98198969	     -4.67822919	     -2.84071929	      0.00000000	     -0.08930026	      0.66545592	      0.52730336	     -0.16583951	      0.88505637	      0.56025982	     -0.14671140	      1.61798951	      0.56025982	     -0.10206127	      1.61798951	      0.46139044	     -0.08292422	      1.35699770	      0.42843398	     -0.05102617	      1.03079121	      0.39547752	     -0.63786283	      7.52777041	      2.93270312	      0.00000000	      0.00000000	      0.00000000	      0.00000000	      0.00000001	     69.68559640	     -7.20127868	      0.22864433	     39.77138795	     60.38975697	      0.00000000	      3.62830032	     66.12292487	     -6.67491955	     -7.24433894	     41.49384224	     60.20278654	      0.00000000	      3.62830032
      0.05800000	    -52.44731409	     -4.52805989	     -3.07249284	     -0.35007310	      0.98668764	      0.03448612	    130.09457781	     -7.02301935	     -3.96410959	    107.00782050	      1.86763879	      2.38781808	     -6.57098535	      0.00000000	     89.39822556	     -9.57576327	      2.06222074	     58.42210350	      1.01965806	     -4.51649464	     -3.33787490	      0.00000000	     -0.08820106	      0.66099404	      0.44897321	     -0.16379820	      0.87912208	      0.47703403	     -0.14490553	      1.60714092	      0.47703403	     -0.10080500	      1.60714092	      0.39285156	     -0.08190351	      1.34789906	      0.36479073	     -0.05039809	      1.02387977	      0.33672990	     -0.63001138	      7.47729683	      2.49705428	      0.00000000	      0.00000000	      0.00000000	      0.00000000	      0.00000001	     69.71703665	     -7.21536676	      0.37384334	     39.74713060	     60.29487343	      0.00000000	      3.65168948	     66.13275171	     -6.68743104	     -7.24653836	     41.61803934	     60.09581338	      0.00000000	      3.65168948
